# xmcd
#
# Track frame offsets:
#	150
#	22698
#	40838
#	69378
#	86188
#	101978
#	120928
#	137200
#	163428
#	180958
#	195895
#	222478
#	243138
#	269513
#
# Disc length: 4043
#
# Revision: 1
# Processed by: cddbd v1.5.1PL0 Copyright (c) Steve Scherf et al.
# Submitted via: dBpowerAMP V4.0
# Normalized: r0:DSETVAR1,TDELIM( - )
#
DISCID=be0fc90e
DTITLE=Various Artist - Blues Around the Clock
DYEAR=2002
DGENRE=Blues
TTITLE0=Joe Turner - Blues Around the Clock
TTITLE1=Joe Turner - Since I Fell for You
TTITLE2=Joe Turner - Kick the Front Door In
TTITLE3=Eddie "Clearhead" Vinson - Just a Dream (On My Mind)
TTITLE4=Eddie "Clearhead" Vinson - My Jug and I
TTITLE5=Eddie "Clearhead" Vinson - Cherry Red
TTITLE6=Joe Turner - Baby, What Do You Want Me To Do?
TTITLE7=Joe Turner - I Want a Little Girl
TTITLE8=T-Bone Walker - Woman, You Must Be Crazy
TTITLE9=T-Bone Walker - Goin' to Chicago Blues
TTITLE10=T-Bone Walker - Stormy Monday
TTITLE11=Muddy Waters - Rollin' N Tumblin'
TTITLE12=Muddy Waters - Walkin' Blues
TTITLE13=Muddy Waters - Got My Mojo Workin'
EXTD=
EXTT0=
EXTT1=
EXTT2=
EXTT3=
EXTT4=
EXTT5=
EXTT6=
EXTT7=
EXTT8=
EXTT9=
EXTT10=
EXTT11=
EXTT12=
EXTT13=
PLAYORDER=
